<?xml version="1.0"?>
<svg xmlns="http://www.w3.org/2000/svg" xmlns:xlink="http://www.w3.org/1999/xlink" version="1.1" viewBox="0 0 224 224" width="30px" height="30px"><g fill="none" fill-rule="nonzero" stroke="none" stroke-width="1" stroke-linecap="butt" stroke-linejoin="miter" stroke-miterlimit="10" stroke-dasharray="" stroke-dashoffset="0" font-family="none" font-weight="none" font-size="none" text-anchor="none" style="mix-blend-mode: normal"><path d="M0,224v-224h224v224z" fill="none"/><g fill="#ffffff"><path d="M97.06667,22.4c-41.14882,0 -74.66667,33.51785 -74.66667,74.66667c0,41.14882 33.51785,74.66667 74.66667,74.66667c17.89393,0 34.32714,-6.35424 47.20625,-16.90208l44.58125,44.58125c1.87276,1.9506 4.65373,2.73635 7.27036,2.05422c2.61663,-0.68213 4.66006,-2.72556 5.34219,-5.34219c0.68213,-2.61663 -0.10362,-5.3976 -2.05422,-7.27036l-44.58125,-44.58125c10.54785,-12.87911 16.90208,-29.31233 16.90208,-47.20625c0,-41.14882 -33.51784,-74.66667 -74.66667,-74.66667zM97.06667,37.33333c33.07825,0 59.73333,26.65508 59.73333,59.73333c0,33.07825 -26.65508,59.73333 -59.73333,59.73333c-33.07825,0 -59.73333,-26.65508 -59.73333,-59.73333c0,-33.07825 26.65508,-59.73333 59.73333,-59.73333z"/></g></g></svg>
